<svg width="358" height="341" viewBox="0 0 358 341" fill="none" xmlns="http://www.w3.org/2000/svg">
	<path d="M211.83 1C236.777 1 251.341 8.50099 260.562 20.4345C269.851 32.4567 273.839 49.1168 277.259 67.7532C277.836 70.8962 278.395 74.0933 278.962 77.3297C285.085 112.293 292.012 151.849 329.672 177.363C367.742 203.154 408.731 195.299 444.478 188.449C447.357 187.898 450.203 187.352 453.01 186.832C471.931 183.323 489.029 180.941 503.315 184.889C517.473 188.802 529.024 198.987 536.72 221.072C552.281 265.729 560 292.616 560 319.462C560 346.307 552.281 373.194 536.72 417.852C521.16 462.505 510.455 488.494 493.526 510.221C476.593 531.953 453.385 549.484 412.646 577.083C392.383 590.811 376.843 595.596 363.389 595.188C349.922 594.779 338.38 589.167 326.082 581.732C322.933 579.828 319.739 577.808 316.458 575.731C294.117 561.596 267.689 544.875 223.5 544.875C180.694 544.875 150.38 560.57 123.673 574.397C118.788 576.926 114.024 579.393 109.326 581.689C94.1105 589.128 79.6243 594.777 63.9216 595.187C48.2478 595.597 31.2447 590.789 11.014 577.083C-29.7255 549.484 -52.9331 531.953 -69.866 510.221C-86.7954 488.494 -97.5004 462.505 -113.06 417.852C-120.807 395.62 -121.51 380.822 -117.909 369.715C-114.309 358.613 -106.348 351.003 -96.2624 343.26C-93.6566 341.259 -90.9147 339.255 -88.0817 337.184C-68.9956 323.23 -45.7715 306.252 -32.1221 267.081C-19.3048 230.298 -23.3848 198.182 -27.0268 169.513C-27.8317 163.177 -28.6153 157.009 -29.1903 150.997C-30.782 134.353 -30.7869 118.913 -25.3979 104.228C-20.0179 89.5672 -9.21783 75.546 11.014 61.8396C51.7492 34.2428 76.8071 19.0737 104.22 10.7683C131.636 2.46198 161.476 1 211.83 1Z" stroke="white" stroke-width="2"/>
	<path d="M213.328 60.5456C229.606 60.5924 239.156 60.8573 244.874 62.0827C247.723 62.6933 249.558 63.5309 250.792 64.6496C252.018 65.7602 252.702 67.195 253.156 69.1141C253.556 70.8082 253.766 72.8319 254.022 75.2939C254.058 75.6457 254.096 76.0064 254.135 76.3764C254.446 79.3211 254.856 82.809 255.719 86.9263C257.446 95.1656 260.981 105.898 269.134 119.881C276.803 133.033 278.69 143.611 280.337 152.847C280.425 153.341 280.513 153.831 280.6 154.318C282.329 163.917 284.127 172.143 292.587 180.216C301.01 188.255 315.998 196.107 343.97 205.17C371.957 214.238 413.004 224.535 473.606 237.428C503.895 243.872 526.982 250.065 544.149 256.105C561.328 262.149 572.536 268.025 579.107 273.814C585.656 279.583 587.548 285.213 586.245 290.842C584.926 296.539 580.311 302.359 573.522 308.406C566.746 314.44 557.882 320.634 548.181 327.097C545.276 329.032 542.296 330.991 539.276 332.976C532.222 337.614 524.951 342.395 517.911 347.345C507.855 354.417 498.247 361.853 490.377 369.75C482.509 377.646 476.354 386.026 473.238 394.994C471.415 400.242 469.675 405.325 467.992 410.246C458.281 438.63 450.418 461.613 438.863 479.595C425.339 500.641 406.753 514.832 374.137 522.673C341.674 530.478 321.741 514.306 299.737 495.978L298.934 495.309C277.165 477.171 253.268 457.26 213.329 457.26C173.291 457.26 149.196 477.227 127.289 495.38L126.649 495.911C104.551 514.219 84.6185 530.39 52.5221 522.673C-11.9139 507.181 -38.5128 452.759 -46.5562 395.089C-48.5615 380.711 -47.2499 370.976 -43.7712 363.212C-40.2869 355.436 -34.6068 349.583 -27.7431 342.991C-27.028 342.304 -26.3007 341.61 -25.5623 340.905C-12.1167 328.069 4.97161 311.756 18.1002 273.974C30.3468 238.73 29.4817 212.248 28.7337 189.35C28.6361 186.363 28.5405 183.437 28.4763 180.56C28.1981 168.096 28.5084 156.584 31.7647 145.036C35.0184 133.497 41.2224 121.893 52.774 109.275C97.7528 60.1453 145.619 60.3115 208.106 60.5285C209.836 60.5345 211.576 60.5405 213.328 60.5456Z" stroke="white"/>
	<path d="M215.981 107.981C229.123 112.723 237.235 119.937 242.822 128.603C248.434 137.31 251.524 147.517 254.545 158.33C254.802 159.248 255.057 160.17 255.314 161.096C261.089 181.906 267.338 204.424 291.628 220.863C316.318 237.571 340.761 235.301 362.975 233.238C363.578 233.182 364.18 233.126 364.78 233.07C387.549 230.97 407.745 229.666 424.345 248.982C436.997 263.706 450.852 270.583 462.045 276.139C465.98 278.092 469.587 279.882 472.696 281.792C478.694 285.477 482.874 289.581 484.454 296.112C486.052 302.719 485.036 311.99 480.112 326.107C470.274 354.309 449.502 389.932 424.654 419.448C412.233 434.202 398.816 447.405 385.265 457.385C371.705 467.371 358.071 474.086 345.211 475.953C332.279 477.831 322.437 476.514 313.911 473.509C305.487 470.539 298.312 465.912 290.626 460.956L290.263 460.722C274.599 450.621 257.035 439.482 223.556 439.482C190.112 439.482 168.473 450.437 148.985 460.434L148.528 460.669C129.233 470.568 112.098 479.36 87.4227 475.952C62.4125 472.498 36.2327 460.193 15.5045 443.005C-5.2337 425.809 -20.3975 403.828 -23.5807 381.093C-25.1549 369.85 -22.1875 361.869 -16.5263 355.178C-10.8039 348.415 -2.32507 342.958 7.22628 336.855L7.53976 336.655C26.5066 324.536 49.2089 310.031 60.3444 278.109C70.5981 248.715 66.8482 221.33 63.4605 196.589C63.1588 194.386 62.8601 192.204 62.5743 190.044C59.0677 163.532 57.5372 140.366 75.792 120.504C94.1855 100.491 115.883 92.5704 139.638 92.0299C163.44 91.4883 189.315 98.3579 215.981 107.981Z" stroke="white" stroke-width="2"/>
	<path d="M148.324 107.5C161.035 107.5 172.814 113.658 184.013 123.421C195.211 133.185 205.779 146.512 216.063 160.758C220.358 166.706 224.609 172.823 228.833 178.903C234.706 187.354 240.529 195.734 246.351 203.491C256.37 216.838 266.458 228.442 276.953 235.565C297.854 249.753 314.574 255.451 331.039 257.592C342.613 259.096 354.074 258.841 366.736 258.559C372.041 258.441 377.558 258.318 383.382 258.318C402.996 258.318 424.332 269.022 438.784 285.44C453.228 301.848 460.739 323.894 452.852 346.574C444.959 369.267 422.139 385.669 395.93 399.963C386.091 405.329 375.801 410.386 365.672 415.363C362.322 417.009 358.99 418.646 355.697 420.283C342.459 426.866 329.864 433.442 319.413 440.537C314.252 444.04 309.686 445.741 305.55 446.074C301.421 446.407 297.679 445.38 294.154 443.357C287.067 439.288 280.902 431.223 274.354 422.157C273.749 421.318 273.14 420.471 272.527 419.619C266.543 411.294 260.172 402.43 252.484 395.433C243.993 387.707 233.864 382.227 220.824 382.227C207.788 382.227 197.141 387.703 187.874 395.419C179.709 402.216 172.583 410.78 165.825 418.903C164.922 419.987 164.026 421.065 163.135 422.128C155.545 431.189 148.335 439.268 140.458 443.346C136.534 445.378 132.458 446.408 128.093 446.074C123.725 445.74 119.029 444.037 113.873 440.537C94.3951 427.315 75.3049 430.989 59.0132 434.124C57.7053 434.376 56.4154 434.624 55.1448 434.86C46.5576 436.453 38.9134 437.465 32.4329 435.297C26.0067 433.147 20.6225 427.826 16.6739 416.472C12.7474 405.181 14.4219 394.004 19.4391 382.835C24.4614 371.655 32.8181 360.519 42.2032 349.344C46.0711 344.739 50.121 340.119 54.1792 335.49C59.9413 328.917 65.72 322.325 71.0182 315.728C80.0605 304.469 87.785 293.102 91.7944 281.573C98.3523 262.717 96.265 246.253 94.4013 231.554C93.9894 228.305 93.5883 225.142 93.2941 222.059C92.4795 213.524 92.4767 205.605 95.2355 198.073C97.9898 190.552 103.519 183.361 113.873 176.333C124.4 169.187 128.646 161.224 129.854 153.288C131.008 145.697 129.372 138.17 127.929 131.535C127.871 131.269 127.814 131.005 127.757 130.743C127.013 127.314 126.357 124.148 126.182 121.315C126.007 118.483 126.317 116.042 127.457 114.037C129.72 110.052 135.445 107.5 148.324 107.5Z" stroke="white"/>
</svg>
